<svg width="21" height="20" viewBox="0 0 21 20" fill="none" xmlns="http://www.w3.org/2000/svg">
<path d="M19.4497 12.6398L20.9122 11.2621L19.4497 9.88439L15.7986 13.3239L7.03378 5.06719L10.6849 1.62772L9.22242 0.25L7.75992 1.62772L6.29742 0.25L4.10878 2.31176L2.64628 0.934042L1.18378 2.31176L2.64628 3.68948L0.457642 5.75124L1.92014 7.12895L0.457642 8.50667L1.92014 9.88439L5.57128 6.44491L14.3361 14.7016L10.6849 18.1411L12.1474 19.5188L13.6099 18.1411L15.0724 19.5188L17.2611 17.457L18.7236 18.8347L20.1861 17.457L18.7236 16.0793L20.9122 14.0175L19.4497 12.6398Z" fill="#B5B5B5" fill-opacity="0.5"/>
</svg>
