<svg width="15" height="23" viewBox="0 0 15 23" fill="none" xmlns="http://www.w3.org/2000/svg">
<path d="M13.3411 10.615C13.1059 10.2571 12.8195 9.94684 12.5536 9.63661C11.8684 8.9207 11.0911 8.40764 10.4366 7.65593C8.91272 5.91389 8.57522 3.03832 9.54681 0.830933C8.57522 1.10536 7.72636 1.72582 7.00022 2.40593C4.35135 4.88775 3.30817 9.26673 4.5559 13.0253C4.59681 13.1446 4.63772 13.2639 4.63772 13.419C4.63772 13.6815 4.48431 13.9201 4.27976 14.0156C4.04453 14.1349 3.79908 14.0633 3.60476 13.8724C3.5434 13.8128 3.50249 13.7531 3.46158 13.6696C2.3059 11.9633 2.12181 9.5173 2.89908 7.56048C1.19112 9.18321 0.26044 11.9275 0.393395 14.5167C0.454758 15.1133 0.516122 15.7099 0.689986 16.3065C0.833168 17.0224 1.1093 17.7383 1.41612 18.3707C2.52067 20.4349 4.43317 21.9145 6.48885 22.2127C8.67749 22.5349 11.0195 22.0696 12.6968 20.3037C14.5684 18.323 15.223 15.1491 14.2616 12.4287L14.1286 12.1184C13.9139 11.5696 13.3411 10.615 13.3411 10.615ZM10.1093 18.1321C9.82295 18.4184 9.35249 18.7287 8.98431 18.848C7.83886 19.3253 6.6934 18.6571 6.0184 17.8696C7.23545 17.5355 7.96158 16.4855 8.17636 15.4235C8.35022 14.469 8.02295 13.6815 7.88999 12.7628C7.76726 11.8798 7.78772 11.1281 8.06386 10.3048C8.25817 10.7582 8.46272 11.2116 8.70817 11.5696C9.49568 12.7628 10.7332 13.2878 10.9991 14.9105C11.04 15.0775 11.0604 15.2446 11.0604 15.4235C11.0911 16.402 10.7229 17.4758 10.1093 18.1321Z" fill="#D15439"/>
</svg>
