<svg width="19" height="16" viewBox="0 0 19 16" fill="none" xmlns="http://www.w3.org/2000/svg">
<path d="M1.56632 0.400613C1.32763 0.400613 1.09871 0.489937 0.929925 0.648935C0.761142 0.807934 0.666321 1.02358 0.666321 1.24844V4.63974V5.91148C0.666321 7.3443 1.59332 8.56517 2.91632 9.06539V14.3897C2.91632 14.727 3.05855 15.0505 3.31173 15.289C3.5649 15.5275 3.90828 15.6615 4.26632 15.6615C4.62436 15.6615 4.96774 15.5275 5.22091 15.289C5.47409 15.0505 5.61632 14.727 5.61632 14.3897V9.06539C6.93932 8.56517 7.86632 7.3443 7.86632 5.91148V4.63974V1.24844C7.86632 1.02358 7.7715 0.807934 7.60272 0.648935C7.43393 0.489937 7.20502 0.400613 6.96632 0.400613C6.72763 0.400613 6.49871 0.489937 6.32992 0.648935C6.16114 0.807934 6.06632 1.02358 6.06632 1.24844V4.63974C6.06632 4.75217 6.01891 4.85999 5.93452 4.93949C5.85013 5.01899 5.73567 5.06365 5.61632 5.06365C5.49697 5.06365 5.38251 5.01899 5.29812 4.93949C5.21373 4.85999 5.16632 4.75217 5.16632 4.63974V1.24844C5.16632 1.02358 5.0715 0.807934 4.90272 0.648935C4.73393 0.489937 4.50502 0.400613 4.26632 0.400613C4.02763 0.400613 3.79871 0.489937 3.62992 0.648935C3.46114 0.807934 3.36632 1.02358 3.36632 1.24844V4.63974C3.36632 4.75217 3.31891 4.85999 3.23452 4.93949C3.15013 5.01899 3.03567 5.06365 2.91632 5.06365C2.79697 5.06365 2.68251 5.01899 2.59812 4.93949C2.51373 4.85999 2.46632 4.75217 2.46632 4.63974V1.24844C2.46632 1.02358 2.3715 0.807934 2.20272 0.648935C2.03393 0.489937 1.80502 0.400613 1.56632 0.400613ZM16.7583 0.400613C16.6413 0.400613 16.5243 0.476918 16.4163 0.536265L13.2663 2.30822V5.48757H9.66632V7.18322H10.5663L11.4663 15.6615H16.8663L17.7663 7.18322H18.6663V5.48757H15.0663V3.23235L17.3163 1.96061C17.7663 1.72322 17.8833 1.24844 17.6223 0.824526C17.4333 0.519309 17.1003 0.358222 16.7583 0.400613Z" fill="#B5B5B5" fill-opacity="0.5"/>
</svg>
