<svg width="24" height="12" viewBox="0 0 24 12" fill="none" xmlns="http://www.w3.org/2000/svg">
<path d="M2.79546 7.70751L3.30682 7.77495L7.98069 3.37204C7.7966 2.7458 7.97046 2.03286 8.51251 1.53187C9.31023 0.770751 10.5989 0.770751 11.3966 1.53187C11.9386 2.03286 12.1125 2.7458 11.9284 3.37204L14.5568 5.84807L15.0682 5.78063C15.2523 5.78063 15.4261 5.78063 15.5796 5.84807L19.2307 2.4086C19.1591 2.26408 19.1591 2.1003 19.1591 1.92688C19.1591 1.41584 19.3746 0.925729 19.7582 0.564369C20.1418 0.20301 20.6621 0 21.2046 0C21.7471 0 22.2673 0.20301 22.6509 0.564369C23.0345 0.925729 23.25 1.41584 23.25 1.92688C23.25 2.43792 23.0345 2.92803 22.6509 3.28939C22.2673 3.65074 21.7471 3.85375 21.2046 3.85375C21.0205 3.85375 20.8466 3.85376 20.6932 3.78631L17.0421 7.22579C17.1137 7.37031 17.1137 7.53409 17.1137 7.70751C17.1137 8.21855 16.8981 8.70866 16.5146 9.07002C16.131 9.43138 15.6107 9.63439 15.0682 9.63439C14.5257 9.63439 14.0054 9.43138 13.6218 9.07002C13.2382 8.70866 13.0227 8.21855 13.0227 7.70751L13.0943 7.22579L10.4659 4.74975C10.1386 4.81719 9.77046 4.81719 9.44319 4.74975L4.76932 9.15267L4.84091 9.63439C4.84091 10.1454 4.62541 10.6355 4.24181 10.9969C3.85821 11.3583 3.33794 11.5613 2.79546 11.5613C2.25297 11.5613 1.7327 11.3583 1.3491 10.9969C0.965503 10.6355 0.75 10.1454 0.75 9.63439C0.75 9.12335 0.965503 8.63324 1.3491 8.27188C1.7327 7.91052 2.25297 7.70751 2.79546 7.70751Z" fill="#B5B5B5" fill-opacity="0.5"/>
</svg>
