<svg width="12" height="18" viewBox="0 0 12 18" fill="none" xmlns="http://www.w3.org/2000/svg">
<path d="M6.18326 0.317854C6.15896 0.124354 5.84126 0.124354 5.81786 0.317854C5.02316 6.71415 0.959656 8.03265 0.959656 12.4787C0.959656 15.2264 3.26726 17.453 6.00056 17.453C8.73296 17.453 11.0406 15.2255 11.0406 12.4787C11.0406 8.03265 6.97796 6.71415 6.18326 0.317854ZM5.41556 7.38916C5.36246 7.58626 5.30486 7.78875 5.24546 7.99935C4.88456 9.28096 4.47506 10.7345 4.47506 12.4148C4.47506 13.3256 3.93686 13.6487 3.43466 13.6487C3.29744 13.6481 3.16168 13.6205 3.03513 13.5674C2.90858 13.5143 2.79373 13.4369 2.69711 13.3394C2.6005 13.242 2.52403 13.1265 2.47207 12.9995C2.4201 12.8725 2.39366 12.7365 2.39426 12.5993C2.39426 10.613 3.35006 9.31516 4.19426 8.17125C4.45976 7.81305 4.70906 7.47375 4.91156 7.13626C5.00426 6.98145 5.25356 6.98865 5.36696 7.14165C5.42005 7.21365 5.43806 7.30546 5.41556 7.38916Z" fill="#5A92CB"/>
</svg>
